<mxfile host="65bd71144e">
    <diagram id="7IPDV5BTUQt0qVz-nsw-" name="Page-1">
        <mxGraphModel dx="1313" dy="584" grid="0" gridSize="10" guides="1" tooltips="1" connect="1" arrows="1" fold="1" page="1" pageScale="1" pageWidth="1100" pageHeight="850" background="none" math="0" shadow="0">
            <root>
                <mxCell id="0"/>
                <mxCell id="1" parent="0"/>
                <mxCell id="58" value="" style="rounded=0;whiteSpace=wrap;html=1;sketch=1;hachureGap=4;jiggle=2;curveFitting=1;fontFamily=Courier New;fontSize=18;fillColor=none;" vertex="1" parent="1">
                    <mxGeometry x="9" y="72" width="584" height="310" as="geometry"/>
                </mxCell>
                <mxCell id="4" value="" style="line;strokeWidth=2;html=1;hachureGap=4;fontFamily=Architects Daughter;fontSource=https%3A%2F%2Ffonts.googleapis.com%2Fcss%3Ffamily%3DArchitects%2BDaughter;fontSize=20;rounded=0;strokeColor=#F0F0F0;" parent="1" vertex="1">
                    <mxGeometry x="29" y="235" width="550" height="10" as="geometry"/>
                </mxCell>
                <mxCell id="6" value="" style="line;strokeWidth=4;html=1;perimeter=backbonePerimeter;points=[];outlineConnect=0;hachureGap=4;fontFamily=Architects Daughter;fontSource=https%3A%2F%2Ffonts.googleapis.com%2Fcss%3Ffamily%3DArchitects%2BDaughter;fontSize=20;rotation=-90;rounded=0;strokeColor=#F0F0F0;" parent="1" vertex="1">
                    <mxGeometry x="19" y="239" width="50" height="10" as="geometry"/>
                </mxCell>
                <mxCell id="7" value="" style="line;strokeWidth=4;html=1;perimeter=backbonePerimeter;points=[];outlineConnect=0;hachureGap=4;fontFamily=Architects Daughter;fontSource=https%3A%2F%2Ffonts.googleapis.com%2Fcss%3Ffamily%3DArchitects%2BDaughter;fontSize=20;rotation=-90;fillColor=#b0e3e6;strokeColor=#0e8088;rounded=0;" parent="1" vertex="1">
                    <mxGeometry x="109" y="240" width="30" height="10" as="geometry"/>
                </mxCell>
                <mxCell id="8" value="" style="line;strokeWidth=4;html=1;perimeter=backbonePerimeter;points=[];outlineConnect=0;hachureGap=4;fontFamily=Architects Daughter;fontSource=https%3A%2F%2Ffonts.googleapis.com%2Fcss%3Ffamily%3DArchitects%2BDaughter;fontSize=20;rotation=-90;fillColor=#b0e3e6;strokeColor=#0e8088;rounded=0;" parent="1" vertex="1">
                    <mxGeometry x="69" y="240" width="30" height="10" as="geometry"/>
                </mxCell>
                <mxCell id="9" value="" style="line;strokeWidth=4;html=1;perimeter=backbonePerimeter;points=[];outlineConnect=0;hachureGap=4;fontFamily=Architects Daughter;fontSource=https%3A%2F%2Ffonts.googleapis.com%2Fcss%3Ffamily%3DArchitects%2BDaughter;fontSize=20;rotation=-90;rounded=0;" parent="1" vertex="1">
                    <mxGeometry x="539" y="239" width="50" height="10" as="geometry"/>
                </mxCell>
                <mxCell id="10" value="" style="line;strokeWidth=4;html=1;perimeter=backbonePerimeter;points=[];outlineConnect=0;hachureGap=4;fontFamily=Architects Daughter;fontSource=https%3A%2F%2Ffonts.googleapis.com%2Fcss%3Ffamily%3DArchitects%2BDaughter;fontSize=20;rotation=-90;fillColor=#b0e3e6;strokeColor=#0e8088;rounded=0;" parent="1" vertex="1">
                    <mxGeometry x="149" y="239" width="30" height="10" as="geometry"/>
                </mxCell>
                <mxCell id="11" value="" style="line;strokeWidth=4;html=1;perimeter=backbonePerimeter;points=[];outlineConnect=0;hachureGap=4;fontFamily=Architects Daughter;fontSource=https%3A%2F%2Ffonts.googleapis.com%2Fcss%3Ffamily%3DArchitects%2BDaughter;fontSize=20;rotation=-90;fillColor=#b0e3e6;strokeColor=#0e8088;rounded=0;" parent="1" vertex="1">
                    <mxGeometry x="189" y="240" width="30" height="10" as="geometry"/>
                </mxCell>
                <mxCell id="14" value="" style="shape=crossbar;whiteSpace=wrap;html=1;rounded=0;hachureGap=4;strokeWidth=3;fontFamily=Architects Daughter;fontSource=https%3A%2F%2Ffonts.googleapis.com%2Fcss%3Ffamily%3DArchitects%2BDaughter;fontSize=20;strokeColor=#F0F0F0;" parent="1" vertex="1">
                    <mxGeometry x="79" y="285" width="40" height="20" as="geometry"/>
                </mxCell>
                <mxCell id="15" value="&lt;font style=&quot;font-size: 18px;&quot; face=&quot;Courier New&quot; color=&quot;#b46504&quot;&gt;500 us&lt;br&gt;Inter average&lt;/font&gt;" style="text;fillColor=none;html=1;fontSize=24;fontStyle=1;verticalAlign=middle;align=center;hachureGap=4;strokeWidth=3;fontFamily=Architects Daughter;fontSource=https%3A%2F%2Ffonts.googleapis.com%2Fcss%3Ffamily%3DArchitects%2BDaughter;rounded=0;" parent="1" vertex="1">
                    <mxGeometry x="256" y="303" width="100" height="40" as="geometry"/>
                </mxCell>
                <mxCell id="16" value="" style="line;strokeWidth=4;html=1;perimeter=backbonePerimeter;points=[];outlineConnect=0;hachureGap=4;fontFamily=Architects Daughter;fontSource=https%3A%2F%2Ffonts.googleapis.com%2Fcss%3Ffamily%3DArchitects%2BDaughter;fontSize=20;rotation=-90;fillColor=#fad7ac;strokeColor=#b46504;rounded=0;" parent="1" vertex="1">
                    <mxGeometry x="229" y="240" width="30" height="10" as="geometry"/>
                </mxCell>
                <mxCell id="17" value="" style="line;strokeWidth=4;html=1;perimeter=backbonePerimeter;points=[];outlineConnect=0;hachureGap=4;fontFamily=Architects Daughter;fontSource=https%3A%2F%2Ffonts.googleapis.com%2Fcss%3Ffamily%3DArchitects%2BDaughter;fontSize=20;rotation=-90;fillColor=#fad7ac;strokeColor=#b46504;rounded=0;" parent="1" vertex="1">
                    <mxGeometry x="249" y="239" width="30" height="10" as="geometry"/>
                </mxCell>
                <mxCell id="18" value="" style="line;strokeWidth=4;html=1;perimeter=backbonePerimeter;points=[];outlineConnect=0;hachureGap=4;fontFamily=Architects Daughter;fontSource=https%3A%2F%2Ffonts.googleapis.com%2Fcss%3Ffamily%3DArchitects%2BDaughter;fontSize=20;rotation=-90;fillColor=#fad7ac;strokeColor=#b46504;rounded=0;" parent="1" vertex="1">
                    <mxGeometry x="279" y="239" width="30" height="10" as="geometry"/>
                </mxCell>
                <mxCell id="19" value="" style="line;strokeWidth=4;html=1;perimeter=backbonePerimeter;points=[];outlineConnect=0;hachureGap=4;fontFamily=Architects Daughter;fontSource=https%3A%2F%2Ffonts.googleapis.com%2Fcss%3Ffamily%3DArchitects%2BDaughter;fontSize=20;rotation=-90;fillColor=#fad7ac;strokeColor=#b46504;rounded=0;" parent="1" vertex="1">
                    <mxGeometry x="349" y="239" width="30" height="10" as="geometry"/>
                </mxCell>
                <mxCell id="21" value="" style="ellipse;shape=doubleEllipse;whiteSpace=wrap;html=1;aspect=fixed;hachureGap=4;strokeWidth=3;fontFamily=Architects Daughter;fontSource=https%3A%2F%2Ffonts.googleapis.com%2Fcss%3Ffamily%3DArchitects%2BDaughter;fontSize=20;fillColor=#008a00;fontColor=#ffffff;strokeColor=#005700;rounded=0;" parent="1" vertex="1">
                    <mxGeometry x="448" y="170" width="30" height="30" as="geometry"/>
                </mxCell>
                <mxCell id="25" value="" style="line;strokeWidth=4;html=1;perimeter=backbonePerimeter;points=[];outlineConnect=0;hachureGap=4;fontFamily=Architects Daughter;fontSource=https%3A%2F%2Ffonts.googleapis.com%2Fcss%3Ffamily%3DArchitects%2BDaughter;fontSize=20;rotation=-90;fillColor=#b0e3e6;strokeColor=#0e8088;rounded=0;" parent="1" vertex="1">
                    <mxGeometry x="389" y="240" width="30" height="10" as="geometry"/>
                </mxCell>
                <mxCell id="20" value="" style="shape=crossbar;whiteSpace=wrap;html=1;rounded=0;hachureGap=4;fontFamily=Architects Daughter;fontSource=https%3A%2F%2Ffonts.googleapis.com%2Fcss%3Ffamily%3DArchitects%2BDaughter;fontSize=20;fillColor=#fad7ac;strokeColor=#b46504;strokeWidth=3;" parent="1" vertex="1">
                    <mxGeometry x="246" y="285" width="120" height="20" as="geometry"/>
                </mxCell>
                <mxCell id="26" value="" style="line;strokeWidth=4;html=1;perimeter=backbonePerimeter;points=[];outlineConnect=0;hachureGap=4;fontFamily=Architects Daughter;fontSource=https%3A%2F%2Ffonts.googleapis.com%2Fcss%3Ffamily%3DArchitects%2BDaughter;fontSize=20;rotation=-90;fillColor=#b0e3e6;strokeColor=#0e8088;rounded=0;" parent="1" vertex="1">
                    <mxGeometry x="429" y="240" width="30" height="10" as="geometry"/>
                </mxCell>
                <mxCell id="27" value="" style="line;strokeWidth=4;html=1;perimeter=backbonePerimeter;points=[];outlineConnect=0;hachureGap=4;fontFamily=Architects Daughter;fontSource=https%3A%2F%2Ffonts.googleapis.com%2Fcss%3Ffamily%3DArchitects%2BDaughter;fontSize=20;rotation=-90;fillColor=#b0e3e6;strokeColor=#0e8088;rounded=0;" parent="1" vertex="1">
                    <mxGeometry x="469" y="239" width="30" height="10" as="geometry"/>
                </mxCell>
                <mxCell id="28" value="" style="line;strokeWidth=4;html=1;perimeter=backbonePerimeter;points=[];outlineConnect=0;hachureGap=4;fontFamily=Architects Daughter;fontSource=https%3A%2F%2Ffonts.googleapis.com%2Fcss%3Ffamily%3DArchitects%2BDaughter;fontSize=20;rotation=-90;fillColor=#b0e3e6;strokeColor=#0e8088;rounded=0;" parent="1" vertex="1">
                    <mxGeometry x="509" y="239" width="30" height="10" as="geometry"/>
                </mxCell>
                <mxCell id="29" value="" style="shape=crossbar;whiteSpace=wrap;html=1;rounded=0;hachureGap=4;fontFamily=Architects Daughter;fontSource=https%3A%2F%2Ffonts.googleapis.com%2Fcss%3Ffamily%3DArchitects%2BDaughter;fontSize=20;fillColor=#b0e3e6;strokeColor=#0e8088;strokeWidth=3;" parent="1" vertex="1">
                    <mxGeometry x="403" y="200" width="120" height="20" as="geometry"/>
                </mxCell>
                <mxCell id="31" value="&lt;font style=&quot;font-size: 14px;&quot; face=&quot;Courier New&quot;&gt;100 us&lt;br&gt;inter sample&lt;/font&gt;" style="text;strokeColor=none;fillColor=none;html=1;fontSize=24;fontStyle=1;verticalAlign=middle;align=center;hachureGap=4;strokeWidth=3;fontFamily=Architects Daughter;fontSource=https%3A%2F%2Ffonts.googleapis.com%2Fcss%3Ffamily%3DArchitects%2BDaughter;rounded=0;fontColor=#F0F0F0;" parent="1" vertex="1">
                    <mxGeometry x="37.5" y="314" width="123" height="40" as="geometry"/>
                </mxCell>
                <mxCell id="33" value="&lt;font face=&quot;Courier New&quot;&gt;All possible Pauses&lt;/font&gt;" style="text;strokeColor=none;fillColor=none;html=1;fontSize=24;fontStyle=1;verticalAlign=middle;align=center;hachureGap=4;strokeWidth=3;fontFamily=Architects Daughter;fontSource=https%3A%2F%2Ffonts.googleapis.com%2Fcss%3Ffamily%3DArchitects%2BDaughter;rounded=0;fontColor=#F0F0F0;" parent="1" vertex="1">
                    <mxGeometry x="600" y="38" width="307" height="40" as="geometry"/>
                </mxCell>
                <mxCell id="34" value="&lt;ul&gt;&lt;li&gt;&lt;font style=&quot;font-size: 14px;&quot; face=&quot;Courier New&quot;&gt;Set sum-buffers to zero&lt;/font&gt;&lt;/li&gt;&lt;li&gt;&lt;font size=&quot;3&quot; face=&quot;Courier New&quot;&gt;Read micros()&lt;/font&gt;&lt;/li&gt;&lt;li&gt;&lt;font size=&quot;3&quot; face=&quot;Courier New&quot;&gt;Read Pin A0 &amp;amp; sum&amp;nbsp;&lt;/font&gt;&lt;/li&gt;&lt;li&gt;&lt;font size=&quot;3&quot; face=&quot;Courier New&quot;&gt;Read Pin A1 &amp;amp; sum&lt;/font&gt;&lt;/li&gt;&lt;li&gt;&lt;font size=&quot;3&quot; face=&quot;Courier New&quot;&gt;apply inter sample delay until threshold&amp;nbsp;&lt;/font&gt;&lt;/li&gt;&lt;li&gt;&lt;font size=&quot;3&quot; face=&quot;Courier New&quot;&gt;Threshold hit Read micros()&lt;/font&gt;&lt;/li&gt;&lt;li&gt;&lt;font size=&quot;3&quot; face=&quot;Courier New&quot;&gt;Write sum of 4 to file (might be going to buffer)&amp;nbsp;&lt;/font&gt;&lt;/li&gt;&lt;li&gt;&lt;font size=&quot;3&quot; face=&quot;Courier New&quot;&gt;apply inter average delay&lt;/font&gt;&lt;/li&gt;&lt;/ul&gt;" style="text;strokeColor=none;fillColor=none;html=1;whiteSpace=wrap;verticalAlign=middle;overflow=hidden;hachureGap=4;strokeWidth=3;fontFamily=Architects Daughter;fontSource=https%3A%2F%2Ffonts.googleapis.com%2Fcss%3Ffamily%3DArchitects%2BDaughter;fontSize=20;rounded=0;fontColor=#F0F0F0;" parent="1" vertex="1">
                    <mxGeometry x="607" y="51" width="481" height="300" as="geometry"/>
                </mxCell>
                <mxCell id="36" value="&lt;font style=&quot;font-size: 18px;&quot; face=&quot;Courier New&quot;&gt;Data points from &lt;br&gt;summing n = 4 values&lt;/font&gt;" style="text;strokeColor=none;fillColor=none;html=1;fontSize=24;fontStyle=1;verticalAlign=middle;align=center;hachureGap=4;strokeWidth=3;fontFamily=Architects Daughter;fontSource=https%3A%2F%2Ffonts.googleapis.com%2Fcss%3Ffamily%3DArchitects%2BDaughter;fontColor=#0e8088;rounded=0;" parent="1" vertex="1">
                    <mxGeometry x="413" y="120" width="100" height="40" as="geometry"/>
                </mxCell>
                <mxCell id="38" value="&lt;font face=&quot;Courier New&quot; color=&quot;#ffffff&quot;&gt;Time Analysis&lt;/font&gt;" style="text;strokeColor=none;fillColor=none;html=1;fontSize=24;fontStyle=1;verticalAlign=middle;align=center;hachureGap=4;strokeWidth=3;fontFamily=Architects Daughter;fontSource=https%3A%2F%2Ffonts.googleapis.com%2Fcss%3Ffamily%3DArchitects%2BDaughter;fontColor=#0e8088;rounded=0;" parent="1" vertex="1">
                    <mxGeometry x="21" y="13" width="210" height="40" as="geometry"/>
                </mxCell>
                <mxCell id="42" value="" style="endArrow=none;html=1;sketch=1;hachureGap=4;jiggle=2;curveFitting=1;fontFamily=Architects Daughter;fontSource=https%3A%2F%2Ffonts.googleapis.com%2Fcss%3Ffamily%3DArchitects%2BDaughter;fontSize=16;strokeWidth=4;fillColor=#e3c800;strokeColor=#B09500;" parent="1" edge="1">
                    <mxGeometry width="50" height="50" relative="1" as="geometry">
                        <mxPoint x="66" y="260" as="sourcePoint"/>
                        <mxPoint x="66" y="220" as="targetPoint"/>
                    </mxGeometry>
                </mxCell>
                <mxCell id="43" value="" style="endArrow=none;html=1;sketch=1;hachureGap=4;jiggle=2;curveFitting=1;fontFamily=Architects Daughter;fontSource=https%3A%2F%2Ffonts.googleapis.com%2Fcss%3Ffamily%3DArchitects%2BDaughter;fontSize=16;strokeWidth=4;fillColor=#e3c800;strokeColor=#B09500;" parent="1" edge="1">
                    <mxGeometry width="50" height="50" relative="1" as="geometry">
                        <mxPoint x="225" y="261" as="sourcePoint"/>
                        <mxPoint x="225" y="221" as="targetPoint"/>
                    </mxGeometry>
                </mxCell>
                <mxCell id="44" value="" style="endArrow=classic;html=1;sketch=1;hachureGap=4;jiggle=2;curveFitting=1;strokeWidth=1;fontFamily=Architects Daughter;fontSource=https%3A%2F%2Ffonts.googleapis.com%2Fcss%3Ffamily%3DArchitects%2BDaughter;fontSize=16;fillColor=#e3c800;strokeColor=#B09500;" parent="1" edge="1">
                    <mxGeometry relative="1" as="geometry">
                        <mxPoint x="69" y="149" as="sourcePoint"/>
                        <mxPoint x="66" y="220" as="targetPoint"/>
                        <Array as="points"/>
                    </mxGeometry>
                </mxCell>
                <mxCell id="45" value="tBefore" style="edgeLabel;resizable=0;html=1;align=center;verticalAlign=middle;sketch=1;hachureGap=4;jiggle=2;curveFitting=1;fontFamily=Architects Daughter;fontSource=https%3A%2F%2Ffonts.googleapis.com%2Fcss%3Ffamily%3DArchitects%2BDaughter;fontSize=20;fontColor=#F0F0F0;labelBackgroundColor=#18141D;" parent="44" connectable="0" vertex="1">
                    <mxGeometry relative="1" as="geometry"/>
                </mxCell>
                <mxCell id="47" value="" style="endArrow=classic;html=1;sketch=1;hachureGap=4;jiggle=2;curveFitting=1;strokeWidth=1;fontFamily=Architects Daughter;fontSource=https%3A%2F%2Ffonts.googleapis.com%2Fcss%3Ffamily%3DArchitects%2BDaughter;fontSize=16;fillColor=#e3c800;strokeColor=#B09500;" parent="1" edge="1">
                    <mxGeometry relative="1" as="geometry">
                        <mxPoint x="226" y="148" as="sourcePoint"/>
                        <mxPoint x="226" y="220" as="targetPoint"/>
                    </mxGeometry>
                </mxCell>
                <mxCell id="48" value="tAfter" style="edgeLabel;resizable=0;html=1;align=center;verticalAlign=middle;sketch=1;hachureGap=4;jiggle=2;curveFitting=1;fontFamily=Architects Daughter;fontSource=https%3A%2F%2Ffonts.googleapis.com%2Fcss%3Ffamily%3DArchitects%2BDaughter;fontSize=20;labelBackgroundColor=#18141D;fontColor=#F0F0F0;" parent="47" connectable="0" vertex="1">
                    <mxGeometry relative="1" as="geometry"/>
                </mxCell>
                <mxCell id="49" value="" style="endArrow=none;html=1;sketch=1;hachureGap=4;jiggle=2;curveFitting=1;fontFamily=Architects Daughter;fontSource=https%3A%2F%2Ffonts.googleapis.com%2Fcss%3Ffamily%3DArchitects%2BDaughter;fontSize=16;strokeWidth=4;fillColor=#e3c800;strokeColor=#B09500;" parent="1" edge="1">
                    <mxGeometry width="50" height="50" relative="1" as="geometry">
                        <mxPoint x="388" y="264" as="sourcePoint"/>
                        <mxPoint x="388" y="224" as="targetPoint"/>
                    </mxGeometry>
                </mxCell>
                <mxCell id="50" value="" style="endArrow=none;html=1;sketch=1;hachureGap=4;jiggle=2;curveFitting=1;fontFamily=Architects Daughter;fontSource=https%3A%2F%2Ffonts.googleapis.com%2Fcss%3Ffamily%3DArchitects%2BDaughter;fontSize=16;strokeWidth=4;fillColor=#e3c800;strokeColor=#B09500;" parent="1" edge="1">
                    <mxGeometry width="50" height="50" relative="1" as="geometry">
                        <mxPoint x="546" y="264" as="sourcePoint"/>
                        <mxPoint x="546" y="224" as="targetPoint"/>
                    </mxGeometry>
                </mxCell>
                <mxCell id="54" value="" style="line;strokeWidth=4;html=1;perimeter=backbonePerimeter;points=[];outlineConnect=0;hachureGap=4;fontFamily=Architects Daughter;fontSource=https%3A%2F%2Ffonts.googleapis.com%2Fcss%3Ffamily%3DArchitects%2BDaughter;fontSize=20;rotation=-90;fillColor=#fad7ac;strokeColor=#b46504;rounded=0;" parent="1" vertex="1">
                    <mxGeometry x="305" y="239" width="30" height="10" as="geometry"/>
                </mxCell>
                <mxCell id="55" value="" style="line;strokeWidth=4;html=1;perimeter=backbonePerimeter;points=[];outlineConnect=0;hachureGap=4;fontFamily=Architects Daughter;fontSource=https%3A%2F%2Ffonts.googleapis.com%2Fcss%3Ffamily%3DArchitects%2BDaughter;fontSize=20;rotation=-90;fillColor=#fad7ac;strokeColor=#b46504;rounded=0;" parent="1" vertex="1">
                    <mxGeometry x="330" y="239" width="30" height="10" as="geometry"/>
                </mxCell>
                <mxCell id="57" value="Old sampling" style="text;html=1;strokeColor=none;fillColor=none;align=center;verticalAlign=middle;whiteSpace=wrap;rounded=0;sketch=1;hachureGap=4;jiggle=2;curveFitting=1;fontFamily=Courier New;fontSize=18;" vertex="1" parent="1">
                    <mxGeometry x="19" y="84" width="158" height="30" as="geometry"/>
                </mxCell>
                <mxCell id="59" value="New sampling" style="text;html=1;strokeColor=none;fillColor=none;align=center;verticalAlign=middle;whiteSpace=wrap;rounded=0;sketch=1;hachureGap=4;jiggle=2;curveFitting=1;fontFamily=Courier New;fontSize=18;" vertex="1" parent="1">
                    <mxGeometry x="13" y="410" width="179" height="30" as="geometry"/>
                </mxCell>
                <mxCell id="60" value="" style="endArrow=none;html=1;sketch=1;hachureGap=4;jiggle=2;curveFitting=1;fontFamily=Courier New;fontSize=18;" edge="1" parent="1">
                    <mxGeometry width="50" height="50" relative="1" as="geometry">
                        <mxPoint x="27" y="584" as="sourcePoint"/>
                        <mxPoint x="991" y="584" as="targetPoint"/>
                    </mxGeometry>
                </mxCell>
                <mxCell id="61" value="" style="endArrow=none;html=1;sketch=1;hachureGap=4;jiggle=2;curveFitting=1;fontFamily=Courier New;fontSize=18;" edge="1" parent="1">
                    <mxGeometry width="50" height="50" relative="1" as="geometry">
                        <mxPoint x="43.5" y="609" as="sourcePoint"/>
                        <mxPoint x="43.5" y="559" as="targetPoint"/>
                    </mxGeometry>
                </mxCell>
                <mxCell id="64" value="" style="endArrow=none;html=1;sketch=1;hachureGap=4;jiggle=2;curveFitting=1;fontFamily=Courier New;fontSize=18;strokeWidth=6;fillColor=#e3c800;strokeColor=#B09500;" edge="1" parent="1">
                    <mxGeometry width="50" height="50" relative="1" as="geometry">
                        <mxPoint x="66" y="609" as="sourcePoint"/>
                        <mxPoint x="66" y="559" as="targetPoint"/>
                    </mxGeometry>
                </mxCell>
                <mxCell id="65" value="" style="endArrow=none;html=1;sketch=1;hachureGap=4;jiggle=2;curveFitting=1;fontFamily=Courier New;fontSize=18;fillColor=#008a00;strokeColor=#005700;" edge="1" parent="1">
                    <mxGeometry width="50" height="50" relative="1" as="geometry">
                        <mxPoint x="93" y="609" as="sourcePoint"/>
                        <mxPoint x="93" y="559" as="targetPoint"/>
                    </mxGeometry>
                </mxCell>
                <mxCell id="66" value="" style="endArrow=none;html=1;sketch=1;hachureGap=4;jiggle=2;curveFitting=1;fontFamily=Courier New;fontSize=18;fillColor=#008a00;strokeColor=#005700;" edge="1" parent="1">
                    <mxGeometry width="50" height="50" relative="1" as="geometry">
                        <mxPoint x="115" y="609" as="sourcePoint"/>
                        <mxPoint x="115" y="559" as="targetPoint"/>
                    </mxGeometry>
                </mxCell>
                <mxCell id="67" value="" style="endArrow=none;html=1;sketch=1;hachureGap=4;jiggle=2;curveFitting=1;fontFamily=Courier New;fontSize=18;fillColor=#008a00;strokeColor=#005700;" edge="1" parent="1">
                    <mxGeometry width="50" height="50" relative="1" as="geometry">
                        <mxPoint x="139" y="609" as="sourcePoint"/>
                        <mxPoint x="139" y="559" as="targetPoint"/>
                    </mxGeometry>
                </mxCell>
                <mxCell id="68" value="" style="endArrow=none;html=1;sketch=1;hachureGap=4;jiggle=2;curveFitting=1;fontFamily=Courier New;fontSize=18;fillColor=#1ba1e2;strokeColor=#006EAF;" edge="1" parent="1">
                    <mxGeometry width="50" height="50" relative="1" as="geometry">
                        <mxPoint x="160" y="609" as="sourcePoint"/>
                        <mxPoint x="160" y="559" as="targetPoint"/>
                    </mxGeometry>
                </mxCell>
                <mxCell id="74" value="" style="endArrow=none;html=1;sketch=1;hachureGap=4;jiggle=2;curveFitting=1;fontFamily=Courier New;fontSize=18;strokeWidth=6;fillColor=#e3c800;strokeColor=#B09500;" edge="1" parent="1">
                    <mxGeometry width="50" height="50" relative="1" as="geometry">
                        <mxPoint x="191" y="609" as="sourcePoint"/>
                        <mxPoint x="191" y="559" as="targetPoint"/>
                    </mxGeometry>
                </mxCell>
                <mxCell id="76" value="" style="endArrow=classic;html=1;sketch=1;hachureGap=4;jiggle=2;curveFitting=1;strokeWidth=1;fontFamily=Courier New;fontSize=18;fillColor=#e3c800;strokeColor=#B09500;" edge="1" parent="1">
                    <mxGeometry relative="1" as="geometry">
                        <mxPoint x="63" y="698" as="sourcePoint"/>
                        <mxPoint x="63" y="619" as="targetPoint"/>
                    </mxGeometry>
                </mxCell>
                <mxCell id="77" value="tBefore" style="edgeLabel;resizable=0;html=1;align=center;verticalAlign=middle;sketch=1;hachureGap=4;jiggle=2;curveFitting=1;fontFamily=Courier New;fontSize=18;fillColor=none;" connectable="0" vertex="1" parent="76">
                    <mxGeometry relative="1" as="geometry"/>
                </mxCell>
                <mxCell id="78" value="" style="endArrow=classic;html=1;sketch=1;hachureGap=4;jiggle=2;curveFitting=1;strokeWidth=1;fontFamily=Courier New;fontSize=18;fillColor=#e3c800;strokeColor=#B09500;" edge="1" parent="1">
                    <mxGeometry relative="1" as="geometry">
                        <mxPoint x="192" y="698" as="sourcePoint"/>
                        <mxPoint x="192" y="619" as="targetPoint"/>
                    </mxGeometry>
                </mxCell>
                <mxCell id="79" value="tAfter" style="edgeLabel;resizable=0;html=1;align=center;verticalAlign=middle;sketch=1;hachureGap=4;jiggle=2;curveFitting=1;fontFamily=Courier New;fontSize=18;fillColor=none;" connectable="0" vertex="1" parent="78">
                    <mxGeometry relative="1" as="geometry"/>
                </mxCell>
                <mxCell id="80" value="" style="endArrow=none;html=1;sketch=1;hachureGap=4;jiggle=2;curveFitting=1;fontFamily=Courier New;fontSize=18;strokeWidth=6;fillColor=#e3c800;strokeColor=#B09500;" edge="1" parent="1">
                    <mxGeometry width="50" height="50" relative="1" as="geometry">
                        <mxPoint x="478" y="606" as="sourcePoint"/>
                        <mxPoint x="478" y="556" as="targetPoint"/>
                    </mxGeometry>
                </mxCell>
                <mxCell id="81" value="" style="endArrow=none;html=1;sketch=1;hachureGap=4;jiggle=2;curveFitting=1;fontFamily=Courier New;fontSize=18;strokeWidth=6;fillColor=#e3c800;strokeColor=#B09500;" edge="1" parent="1">
                    <mxGeometry width="50" height="50" relative="1" as="geometry">
                        <mxPoint x="342" y="609" as="sourcePoint"/>
                        <mxPoint x="342" y="559" as="targetPoint"/>
                    </mxGeometry>
                </mxCell>
                <mxCell id="82" value="" style="endArrow=none;html=1;sketch=1;hachureGap=4;jiggle=2;curveFitting=1;fontFamily=Courier New;fontSize=18;fillColor=#008a00;strokeColor=#005700;" edge="1" parent="1">
                    <mxGeometry width="50" height="50" relative="1" as="geometry">
                        <mxPoint x="359" y="609" as="sourcePoint"/>
                        <mxPoint x="359" y="559" as="targetPoint"/>
                    </mxGeometry>
                </mxCell>
                <mxCell id="83" value="" style="endArrow=none;html=1;sketch=1;hachureGap=4;jiggle=2;curveFitting=1;fontFamily=Courier New;fontSize=18;fillColor=#008a00;strokeColor=#005700;" edge="1" parent="1">
                    <mxGeometry width="50" height="50" relative="1" as="geometry">
                        <mxPoint x="390" y="609" as="sourcePoint"/>
                        <mxPoint x="390" y="559" as="targetPoint"/>
                    </mxGeometry>
                </mxCell>
                <mxCell id="84" value="" style="endArrow=none;html=1;sketch=1;hachureGap=4;jiggle=2;curveFitting=1;fontFamily=Courier New;fontSize=18;fillColor=#008a00;strokeColor=#005700;" edge="1" parent="1">
                    <mxGeometry width="50" height="50" relative="1" as="geometry">
                        <mxPoint x="426" y="609" as="sourcePoint"/>
                        <mxPoint x="426" y="559" as="targetPoint"/>
                    </mxGeometry>
                </mxCell>
                <mxCell id="85" value="" style="endArrow=none;html=1;sketch=1;hachureGap=4;jiggle=2;curveFitting=1;fontFamily=Courier New;fontSize=18;fillColor=#008a00;strokeColor=#005700;" edge="1" parent="1">
                    <mxGeometry width="50" height="50" relative="1" as="geometry">
                        <mxPoint x="451" y="609" as="sourcePoint"/>
                        <mxPoint x="451" y="559" as="targetPoint"/>
                    </mxGeometry>
                </mxCell>
                <mxCell id="86" value="" style="shape=curlyBracket;whiteSpace=wrap;html=1;rounded=1;flipH=1;labelPosition=right;verticalLabelPosition=middle;align=left;verticalAlign=middle;sketch=1;hachureGap=4;jiggle=2;curveFitting=1;fontFamily=Courier New;fontSize=18;fillColor=none;size=0.5;rotation=-90;" vertex="1" parent="1">
                    <mxGeometry x="255.75" y="464.75" width="19.5" height="149" as="geometry"/>
                </mxCell>
                <mxCell id="89" value="calling write on:&lt;br&gt;tBefore, tAfter&amp;nbsp;&lt;br&gt;sum_a0, sum_a1" style="text;html=1;strokeColor=default;fillColor=none;align=center;verticalAlign=middle;whiteSpace=wrap;rounded=0;sketch=1;hachureGap=4;jiggle=2;curveFitting=1;fontFamily=Courier New;fontSize=18;" vertex="1" parent="1">
                    <mxGeometry x="168" y="455" width="211" height="72" as="geometry"/>
                </mxCell>
                <mxCell id="90" value="dt = ?&amp;nbsp;" style="text;html=1;strokeColor=none;fillColor=none;align=center;verticalAlign=middle;whiteSpace=wrap;rounded=0;sketch=1;hachureGap=4;jiggle=2;curveFitting=1;fontFamily=Courier New;fontSize=18;" vertex="1" parent="1">
                    <mxGeometry x="205.5" y="546" width="120" height="30" as="geometry"/>
                </mxCell>
                <mxCell id="91" value="+ checking while loop" style="text;html=1;strokeColor=default;fillColor=none;align=center;verticalAlign=middle;whiteSpace=wrap;rounded=0;sketch=1;hachureGap=4;jiggle=2;curveFitting=1;fontFamily=Courier New;fontSize=18;" vertex="1" parent="1">
                    <mxGeometry x="379" y="474" width="244" height="30" as="geometry"/>
                </mxCell>
                <mxCell id="92" value="" style="shape=curlyBracket;whiteSpace=wrap;html=1;rounded=1;flipH=1;labelPosition=right;verticalLabelPosition=middle;align=left;verticalAlign=middle;sketch=1;hachureGap=4;jiggle=2;curveFitting=1;strokeColor=#005700;fontFamily=Courier New;fontSize=18;fillColor=#008a00;rotation=90;size=0.5;fontColor=#ffffff;" vertex="1" parent="1">
                    <mxGeometry x="388.25" y="604.25" width="37" height="95.5" as="geometry"/>
                </mxCell>
                <mxCell id="93" value="Summed data point in for loop" style="text;html=1;strokeColor=#005700;fillColor=none;align=center;verticalAlign=middle;whiteSpace=wrap;rounded=0;sketch=1;hachureGap=4;jiggle=2;curveFitting=1;fontFamily=Courier New;fontSize=18;fontColor=#008a00;" vertex="1" parent="1">
                    <mxGeometry x="313" y="717" width="204" height="48" as="geometry"/>
                </mxCell>
                <mxCell id="94" value="" style="ellipse;shape=doubleEllipse;whiteSpace=wrap;html=1;aspect=fixed;hachureGap=4;strokeWidth=3;fontFamily=Architects Daughter;fontSource=https%3A%2F%2Ffonts.googleapis.com%2Fcss%3Ffamily%3DArchitects%2BDaughter;fontSize=20;fillColor=#008a00;fontColor=#ffffff;strokeColor=#005700;rounded=0;" vertex="1" parent="1">
                    <mxGeometry x="397" y="677" width="30" height="30" as="geometry"/>
                </mxCell>
                <mxCell id="97" value="" style="shape=curlyBracket;whiteSpace=wrap;html=1;rounded=1;labelPosition=left;verticalLabelPosition=middle;align=right;verticalAlign=middle;sketch=1;hachureGap=4;jiggle=2;curveFitting=1;strokeColor=default;fontFamily=Courier New;fontSize=18;fontColor=#008a00;fillColor=none;rotation=90;" vertex="1" parent="1">
                    <mxGeometry x="95" y="528.75" width="20" height="21" as="geometry"/>
                </mxCell>
                <mxCell id="99" value="100 us" style="text;html=1;strokeColor=default;fillColor=none;align=center;verticalAlign=middle;whiteSpace=wrap;rounded=0;sketch=1;hachureGap=4;jiggle=2;curveFitting=1;fontFamily=Courier New;fontSize=18;fontColor=#FFFFFF;" vertex="1" parent="1">
                    <mxGeometry x="66" y="497" width="83" height="30" as="geometry"/>
                </mxCell>
                <mxCell id="100" value="" style="endArrow=none;html=1;sketch=1;hachureGap=4;jiggle=2;curveFitting=1;fontFamily=Courier New;fontSize=18;strokeWidth=6;fillColor=#e3c800;strokeColor=#B09500;" edge="1" parent="1">
                    <mxGeometry width="50" height="50" relative="1" as="geometry">
                        <mxPoint x="640" y="606" as="sourcePoint"/>
                        <mxPoint x="640" y="556" as="targetPoint"/>
                    </mxGeometry>
                </mxCell>
                <mxCell id="101" value="" style="endArrow=none;html=1;sketch=1;hachureGap=4;jiggle=2;curveFitting=1;fontFamily=Courier New;fontSize=18;fillColor=#008a00;strokeColor=#005700;" edge="1" parent="1">
                    <mxGeometry width="50" height="50" relative="1" as="geometry">
                        <mxPoint x="665" y="609" as="sourcePoint"/>
                        <mxPoint x="665" y="559" as="targetPoint"/>
                    </mxGeometry>
                </mxCell>
                <mxCell id="102" value="" style="endArrow=none;html=1;sketch=1;hachureGap=4;jiggle=2;curveFitting=1;fontFamily=Courier New;fontSize=18;fillColor=#008a00;strokeColor=#005700;" edge="1" parent="1">
                    <mxGeometry width="50" height="50" relative="1" as="geometry">
                        <mxPoint x="693" y="609" as="sourcePoint"/>
                        <mxPoint x="693" y="559" as="targetPoint"/>
                    </mxGeometry>
                </mxCell>
                <mxCell id="103" value="" style="endArrow=none;html=1;sketch=1;hachureGap=4;jiggle=2;curveFitting=1;fontFamily=Courier New;fontSize=18;fillColor=#008a00;strokeColor=#005700;" edge="1" parent="1">
                    <mxGeometry width="50" height="50" relative="1" as="geometry">
                        <mxPoint x="718" y="609" as="sourcePoint"/>
                        <mxPoint x="718" y="559" as="targetPoint"/>
                    </mxGeometry>
                </mxCell>
                <mxCell id="104" value="" style="endArrow=none;html=1;sketch=1;hachureGap=4;jiggle=2;curveFitting=1;fontFamily=Courier New;fontSize=18;fillColor=#008a00;strokeColor=#005700;" edge="1" parent="1">
                    <mxGeometry width="50" height="50" relative="1" as="geometry">
                        <mxPoint x="754" y="609" as="sourcePoint"/>
                        <mxPoint x="754" y="559" as="targetPoint"/>
                    </mxGeometry>
                </mxCell>
                <mxCell id="107" value="" style="endArrow=none;html=1;sketch=1;hachureGap=4;jiggle=2;curveFitting=1;fontFamily=Courier New;fontSize=18;strokeWidth=6;fillColor=#e3c800;strokeColor=#B09500;" edge="1" parent="1">
                    <mxGeometry width="50" height="50" relative="1" as="geometry">
                        <mxPoint x="786" y="606" as="sourcePoint"/>
                        <mxPoint x="786" y="556" as="targetPoint"/>
                    </mxGeometry>
                </mxCell>
                <mxCell id="108" value="" style="shape=curlyBracket;whiteSpace=wrap;html=1;rounded=1;flipH=1;labelPosition=right;verticalLabelPosition=middle;align=left;verticalAlign=middle;sketch=1;hachureGap=4;jiggle=2;curveFitting=1;strokeColor=default;fontFamily=Courier New;fontSize=18;fontColor=#008a00;fillColor=none;rotation=90;" vertex="1" parent="1">
                    <mxGeometry x="685.75" y="571.25" width="55.5" height="146.5" as="geometry"/>
                </mxCell>
                <mxCell id="109" value="Consistent spacing" style="text;html=1;strokeColor=default;fillColor=none;align=center;verticalAlign=middle;whiteSpace=wrap;rounded=0;sketch=1;hachureGap=4;jiggle=2;curveFitting=1;fontFamily=Courier New;fontSize=18;fontColor=#FFFFFF;" vertex="1" parent="1">
                    <mxGeometry x="636.13" y="667" width="154.75" height="57" as="geometry"/>
                </mxCell>
                <mxCell id="110" value="" style="endArrow=none;html=1;sketch=1;hachureGap=4;jiggle=2;curveFitting=1;fontFamily=Courier New;fontSize=18;strokeWidth=6;fillColor=#e3c800;strokeColor=#B09500;" edge="1" parent="1">
                    <mxGeometry width="50" height="50" relative="1" as="geometry">
                        <mxPoint x="987" y="606" as="sourcePoint"/>
                        <mxPoint x="987" y="556" as="targetPoint"/>
                    </mxGeometry>
                </mxCell>
                <mxCell id="111" value="" style="shape=curlyBracket;whiteSpace=wrap;html=1;rounded=1;labelPosition=left;verticalLabelPosition=middle;align=right;verticalAlign=middle;sketch=1;hachureGap=4;jiggle=2;curveFitting=1;strokeColor=default;fontFamily=Courier New;fontSize=18;fontColor=#FFFFFF;fillColor=none;rotation=90;" vertex="1" parent="1">
                    <mxGeometry x="864.75" y="422" width="39.5" height="205" as="geometry"/>
                </mxCell>
                <mxCell id="112" value="inconsistent spacing" style="text;html=1;strokeColor=default;fillColor=none;align=center;verticalAlign=middle;whiteSpace=wrap;rounded=0;sketch=1;hachureGap=4;jiggle=2;curveFitting=1;fontFamily=Courier New;fontSize=18;fontColor=#FFFFFF;" vertex="1" parent="1">
                    <mxGeometry x="801" y="446" width="154.75" height="57" as="geometry"/>
                </mxCell>
                <mxCell id="113" value="" style="rounded=1;whiteSpace=wrap;html=1;sketch=1;hachureGap=4;jiggle=2;curveFitting=1;strokeColor=default;fontFamily=Courier New;fontSize=18;fontColor=#FFFFFF;fillColor=none;" vertex="1" parent="1">
                    <mxGeometry x="13" y="404.75" width="1024" height="372.25" as="geometry"/>
                </mxCell>
            </root>
        </mxGraphModel>
    </diagram>
</mxfile>